<svg width="332" height="332" viewBox="0 0 332 332" fill="none" xmlns="http://www.w3.org/2000/svg">
<path d="M165.753 0C257.295 0.000173178 331.505 74.2104 331.505 165.753C331.505 257.295 257.295 331.505 165.753 331.505C74.2104 331.505 0.000173223 257.295 0 165.753C0 74.2103 74.2103 0 165.753 0ZM166.252 147.779C156.05 147.779 147.779 156.05 147.779 166.252C147.779 176.454 156.05 184.725 166.252 184.725C176.454 184.725 184.725 176.454 184.725 166.252C184.725 156.05 176.454 147.779 166.252 147.779Z" fill="black"/>
<circle cx="165.753" cy="165.753" r="163.253" stroke="#606060" stroke-width="5"/>
<path d="M85.8837 84.5684L24.8516 85.0013C20.9603 85.0289 18.5907 89.2952 20.6236 92.6133L158.353 317.413C162.34 323.922 171.856 323.743 175.597 317.089L294.043 106.38L314.927 117.134C317.249 118.33 319.884 116.193 319.193 113.674L300.971 47.1806C300.198 44.358 297.176 42.8003 294.428 43.8076L230.829 67.1211C228.501 67.9747 228.155 71.1242 230.242 72.4631L249.116 84.5684L171.648 225.768C169.746 229.233 164.766 229.226 162.874 225.757L85.8837 84.5684Z" fill="black" stroke="#606060" stroke-width="5"/>
<path d="M167.5 94C207.541 94 240 126.235 240 166C240 205.765 207.541 238 167.5 238C127.459 238 95 205.765 95 166C95 126.235 127.459 94 167.5 94ZM166.252 147.779C156.05 147.779 147.779 156.05 147.779 166.252C147.779 176.454 156.05 184.725 166.252 184.725C176.454 184.725 184.725 176.454 184.725 166.252C184.725 156.05 176.454 147.779 166.252 147.779Z" fill="#D9D9D9"/>
<mask id="mask0_486_33" style="mask-type:alpha" maskUnits="userSpaceOnUse" x="19" y="43" width="301" height="280">
<path d="M85.8837 84.5684L24.8516 85.0013C20.9603 85.0289 18.5907 89.2952 20.6236 92.6133L158.353 317.413C162.34 323.922 171.856 323.743 175.597 317.089L294.043 106.38L314.927 117.134C317.249 118.33 319.884 116.193 319.193 113.674L300.971 47.1806C300.198 44.358 297.176 42.8003 294.428 43.8076L230.829 67.1211C228.501 67.9747 228.155 71.1242 230.242 72.4631L249.116 84.5684L171.648 225.768C169.746 229.233 164.766 229.226 162.874 225.757L85.8837 84.5684Z" fill="black"/>
</mask>
<g mask="url(#mask0_486_33)">
<circle cx="165.753" cy="165.753" r="96.3525" stroke="#606060" stroke-width="5"/>
<circle cx="166.252" cy="166.252" r="128.804" stroke="#606060" stroke-width="5"/>
</g>
</svg>
